# AST/ASF file generated using VICON BodyLanguage
# -----------------------------------------------
:version 1.10
:name VICON
:units
  mass 1.0
  length 0.45
  angle deg
:documentation
   .ast/.asf automatically generated from VICON data using
   VICON BodyBuilder and BodyLanguage model FoxedUp or BRILLIANT.MOD
:root
   order TX TY TZ RX RY RZ
   axis XYZ
   position 0 0 0  
   orientation 0 0 0 
:bonedata
  begin
     id 1 
     name lhipjoint
     direction 0.822369 -0.411937 0.392449 
     length 3.8167 
     axis 0 0 0  XYZ
  end
  begin
     id 2 
     name lfemur
     direction 0.34202 -0.939693 0  
     length 6.16791  
     axis 0 0 20  XYZ
    dof rx ry rz
    limits (-160.0 20.0)
           (-70.0 70.0)
           (-60.0 70.0)
  end
  begin
     id 3 
     name ltibia
     direction 0.34202 -0.939693 0   
     length 7.07101   
     axis 0 0 20   XYZ
    dof rx
    limits (-10.0 170.0)
  end
  begin
     id 4 
     name lfoot
     direction 0.028254 -0.0776273 0.996582   
     length 1.66799   
     axis -90 7.62852e-016 20   XYZ
    dof rx rz
    limits (-45.0 90.0)
           (-70.0 20.0)
  end
  begin
     id 5 
     name ltoes
     direction 1.53483e-011 -4.21688e-011 1   
     length 0.851674   
     axis -90 7.62852e-016 20   XYZ
    dof rx
    limits (-90.0 20.0)
  end
  begin
     id 6 
     name rhipjoint
     direction -0.822466 -0.411836 0.392353   
     length 3.81764  
     axis 0 0 0  XYZ 
  end
  begin
     id 7 
     name rfemur
     direction -0.34202 -0.939693 0   
     length 6.28636   
     axis 0 0 -20   XYZ
    dof rx ry rz
    limits (-160.0 20.0)
           (-70.0 70.0)
           (-70.0 60.0)
  end
  begin
     id 8 
     name rtibia
     direction -0.34202 -0.939693 0   
     length 6.85621   
     axis 0 0 -20   XYZ
    dof rx
    limits (-10.0 170.0)
 end
 begin
     id 9 
     name rfoot
     direction -0.0553036 -0.151945 0.98684   
     length 1.57293  
     axis -90 -7.62852e-016 -20   XYZ
    dof rx rz
    limits (-45.0 90.0)
           (-20.0 70.0)
  end
  begin
     id 10 
     name rtoes
     direction -1.53592e-011 -4.21964e-011 1   
     length 0.802812   
     axis -90 -7.62852e-016 -20   XYZ
    dof rx
    limits (-90.0 20.0)
  end
  begin
     id 11 
     name lowerback
     direction 0.00654913 0.996475 -0.0836396   
     length 1.97212   
     axis 0 0 0   XYZ
    dof rx ry rz
    limits (-20.0 45.0)
           (-30.0 30.0)
           (-30.0 30.0)
  end
  begin
     id 12 
     name upperback
     direction 0.0111875 0.994527 0.103877   
     length 1.89704   
     axis 0 0 0   XYZ
    dof rx ry rz
    limits (-20.0 45.0)
           (-30.0 30.0)
           (-30.0 30.0)
  end
  begin
     id 13 
     name thorax
     direction 0.00473652 0.989004 0.147814   
     length 1.94516   
     axis 0 0 0   XYZ
    dof rx ry rz
    limits (-20.0 45.0)
           (-30.0 30.0)
           (-30.0 30.0)
  end
  begin
     id 14 
     name lowerneck
     direction -0.00925808 0.999011 0.0434791   
     length 1.81771   
     axis 0 0 0   XYZ
    dof rx ry rz
    limits (-20.0 45.0)
           (-30.0 30.0)
           (-30.0 30.0)
  end
  begin
     id 15 
     name upperneck
     direction 0.00451595 0.964412 -0.264365   
     length 1.80434   
     axis 0 0 0   XYZ
    dof rx ry rz
    limits (-20.0 45.0)
           (-30.0 30.0)
           (-30.0 30.0)
  end
  begin
     id 16
     name head
     direction -0.00110849 0.995756 -0.0920241  
     length 1.84006  
     axis 0 0 0   XYZ
    dof rx ry rz
    limits (-20.0 45.0)
           (-30.0 30.0)
           (-30.0 30.0)
  end
  begin
     id 17 
     name lclavicle
     direction 0.921253 0.385213 0.0538957  
     length 3.67415  
     axis 0 0 0   XYZ
    dof ry rz
    limits (-20.0 10.0)
           (0.0 20.0)
  end
  begin
     id 18 
     name lhumerus
     direction 1 -4.48961e-011 6.73441e-028   
     length 4.32712   
     axis 180 -30 -90   XYZ
    dof rx ry rz
    limits (-60.0 90.0)
           (-90.0 90.0)
           (-90.0 90.0)
  end
  begin
     id 19
     name lradius
     direction 1 -4.48985e-011 -9.53507e-028   
     length 3.28587   
     axis 180 -30 -90   XYZ
    dof rx
    limits (-10.0 170.0)
  end
  begin
     id 20
     name lwrist
     direction 1 -4.48951e-011 -4.67472e-027   
     length 1.64293   
     axis 1.65735e-015 90 90   XYZ
    dof ry
    limits (-180.0 0.0)
 end
  begin
     id 21 
     name lhand
     direction 1 -4.48946e-011 -9.34945e-027   
     length 0.433158   
     axis 5.96574e-015 90 90   XYZ
    dof rx rz
    limits (-90.0 90.0)
           (-45.0 45.0)
  end
  begin
     id 22 
     name lfingers
     direction 1 -4.48882e-011 -1.86989e-026   
     length 0.349224   
     axis 1.19315e-014 90 90   XYZ
    dof rx
    limits (0.0 90.0)
  end
  begin
     id 23
     name lthumb
     direction 0.707107 -6.3493e-011 0.707107   
     length 0.501417   
     axis -90 45 2.85299e-015   XYZ
    dof rx rz
    limits (-45.0 45.0)
           (-45.0 45.0)
  end
  begin
     id 24 
     name rclavicle
     direction -0.884378 0.46502 -0.0403866   
     length 3.50218  
     axis 0 0 0   XYZ 
    dof ry rz
    limits (-10.0 20.0)
           (-20.0 0.0)
  end
  begin
     id 25 
     name rhumerus
     direction -1 -4.48964e-011 1.58188e-027  
     length 4.29104   
     axis 180 30 90   XYZ
    dof rx ry rz
    limits (-90.0 60.0)
           (-90.0 90.0)
           (-90.0 90.0)
  end
  begin
     id 26 
     name rradius
     direction -1 -4.48978e-011 -1.9722e-027   
     length 3.2272   
     axis 180 30 90   XYZ
    dof rx
    limits (-10.0 170.0)
  end
  begin
     id 27 
     name rwrist
     direction -1 -4.48969e-011 -4.67472e-027   
     length 1.6136   
     axis 1.65735e-015 -90 -90   XYZ
    dof ry
    limits (-180.0 0.0)
  end
  begin
     id 28
     name rhand
     direction -1 -4.48846e-011 -9.34945e-027   
     length 0.543623   
     axis 5.96574e-015 -90 -90   XYZ
    dof rx rz
    limits (-90.0 90.0)
           (-45.0 45.0)
  end
  begin
     id 29
     name rfingers
     direction -1 -4.49074e-011 -1.86989e-026   
     length 0.438283   
     axis 1.19315e-014 -90 -90   XYZ
    dof rx
    limits (0.0 90.0)
  end
  begin
     id 30
     name rthumb
     direction -0.707107 -6.34834e-011 0.707107   
     length 0.629289   
     axis -90 -45 -2.85299e-015   XYZ
    dof rx rz
    limits (-45.0 45.0)
           (-45.0 45.0)
  end
:hierarchy
  begin
    root lhipjoint rhipjoint lowerback
    lhipjoint lfemur
    lfemur ltibia
    ltibia lfoot
    lfoot ltoes
    rhipjoint rfemur
    rfemur rtibia
    rtibia rfoot
    rfoot rtoes
    lowerback upperback
    upperback thorax
    thorax lowerneck lclavicle rclavicle
    lowerneck upperneck
    upperneck head
    lclavicle lhumerus
    lhumerus lradius
    lradius lwrist
    lwrist lhand lthumb
    lhand lfingers
    rclavicle rhumerus
    rhumerus rradius
    rradius rwrist
    rwrist rhand rthumb
    rhand rfingers
  end

#!OML:ASF H:\GeneralSubjects\Female5\Project 1\Capture day 1\Session 1\Female5.ASF
:FULLY-SPECIFIED
:DEGREES
110
root 4.85645 16.0534 -0.0386818 135.668 -83.4163 -133.945
lowerback 6.39952 1.38002 1.43675
upperback -9.89252 2.02618 2.16186
thorax -14.5181 0.828489 1.24728
lowerneck -12.4192 -1.41067 -2.77066
upperneck 34.5051 -2.17045 -1.25423
head 13.7918 -1.96812 -0.464531
rclavicle 3.75206e-015 -7.50412e-015
rhumerus 20.7506 1.20154 -9.19667
rradius 83.3092
rwrist -29.7046
rhand 42.3481 -24.3838
rfingers 7.12502
rthumb 64.3107 -32.668
lclavicle 3.75206e-015 -7.50412e-015
lhumerus 18.8249 7.74876 19.9722
lradius 81.8338
lwrist 2.32218
lhand 42.852 38.8668
lfingers 7.12502
lthumb 64.713 -313.486
rfemur 7.78738 18.7796 30.1928
rtibia 1.12306
rfoot -28.6419 -25.7451
rtoes -1.22086
lfemur 2.79285 -21.9672 -16.769
ltibia 9.34038
lfoot -34.7227 -6.19201
ltoes -21.9463
111
root 4.85856 16.0547 -0.0376133 135.614 -83.3917 -133.884
lowerback 6.35359 1.39225 1.4834
upperback -9.82872 2.045 2.11955
thorax -14.4078 0.831479 1.1702
lowerneck -12.6403 -1.44961 -2.618
upperneck 34.5226 -2.23465 -1.30682
head 13.8458 -1.97893 -0.525176
rclavicle -1.98785e-015 -2.29596e-014
rhumerus 20.4853 3.69237 -7.31517
rradius 83.3609
rwrist -32.9539
rhand 51.3356 -29.173
rfingers 7.12502
rthumb 70.8004 -22.1686
lclavicle -1.98785e-015 -2.29596e-014
lhumerus 18.8309 5.92587 18.3658
lradius 81.0258
lwrist 4.92428
lhand 43.9744 39.6664
lfingers 7.12502
lthumb 65.5964 -314.182
rfemur 7.88454 19.0016 30.2889
rtibia 0.966605
rfoot -28.7256 -25.964
rtoes -1.25362
lfemur 2.85039 -22.0618 -16.7575
ltibia 9.3049
lfoot -34.8559 -6.16969
ltoes -22.341
112
root 4.86036 16.0556 -0.0375722 135.614 -83.3763 -133.878
lowerback 6.29314 1.39254 1.46554
upperback -9.78765 2.03972 2.09834
thorax -14.319 0.830842 1.15784
lowerneck -12.7327 -1.47969 -2.50484
upperneck 34.5105 -2.30813 -1.2921
head 13.8595 -1.99149 -0.551137
rclavicle 6.8208e-015 -7.40473e-015
rhumerus 20.3057 5.97178 -5.85693
rradius 83.5661
rwrist -35.0035
rhand 57.6676 -34.3829
rfingers 7.12502
rthumb 73.9344 -9.91387
lclavicle 6.8208e-015 -7.40473e-015
lhumerus 18.8251 4.51622 17.0586
lradius 80.5225
lwrist 7.40326
lhand 46.4135 40.7577
lfingers 7.12502
lthumb 67.4471 -316.752
rfemur 7.90865 19.014 30.3115
rtibia 0.898287
rfoot -28.4633 -26.1695
rtoes -1.79349
lfemur 2.89879 -22.1199 -16.7491
ltibia 9.30728
lfoot -34.964 -6.20514
ltoes -22.7846
113
root 4.86149 16.0563 -0.0367971 135.855 -83.3881 -134.098
lowerback 6.25161 1.42418 1.50582
upperback -9.78677 2.07717 2.00833
thorax -14.2858 0.838408 1.02917
lowerneck -12.7546 -1.53944 -2.51444
upperneck 34.5194 -2.43931 -1.1619
head 13.8712 -2.0316 -0.517912
rclavicle 1.54213e-014 1.48467e-014
rhumerus 19.9299 7.66071 -4.64915
rradius 83.9974
rwrist -35.7899
rhand 58.2492 -34.7508
rfingers 7.12502
rthumb 74.1292 -8.36671
lclavicle 1.54213e-014 1.48467e-014
lhumerus 18.8928 3.3483 16.0472
lradius 80.37
lwrist 10.1361
lhand 47.5783 42.0777
lfingers 7.12502
lthumb 68.2923 -317.404
rfemur 7.90362 18.961 30.2567
rtibia 0.839986
rfoot -28.2086 -26.2019
rtoes -1.86786
lfemur 2.92971 -22.0571 -16.7758
ltibia 9.16552
lfoot -34.9053 -6.1109
ltoes -22.5558
114
root 4.8645 16.0569 -0.0358842 136.152 -83.4227 -134.352
lowerback 6.23356 1.46011 1.51454
upperback -9.81187 2.11767 1.9297
thorax -14.3006 0.850743 0.930266
lowerneck -12.69 -1.62026 -2.64712
upperneck 34.531 -2.5845 -1.0062
head 13.8682 -2.0926 -0.454141
rclavicle -6.25085e-015 -1.50642e-014
rhumerus 19.5403 8.47138 -3.83766
rradius 84.4813
rwrist -35.5975
rhand 58.0336 -34.3053
rfingers 7.12502
rthumb 74.0591 -8.63651
lclavicle -6.25085e-015 -1.50642e-014
lhumerus 18.9859 2.55857 15.2848
lradius 80.4526
lwrist 13.106
lhand 47.291 43.4379
lfingers 7.12502
lthumb 68.0864 -315.542
rfemur 7.90922 19.0487 30.2114
rtibia 0.755151
rfoot -28.5157 -26.0291
rtoes -0.79365
lfemur 2.89 -21.9916 -16.8044
ltibia 9.07557
lfoot -34.7959 -5.9711
ltoes -22.1786
115
root 4.87016 16.0567 -0.0367261 136.247 -83.4061 -134.423
lowerback 6.26555 1.47777 1.46744
upperback -9.84106 2.13732 1.9421
thorax -14.359 0.864966 0.966521
lowerneck -12.5113 -1.66308 -2.691
upperneck 34.5011 -2.65104 -1.00365
head 13.8166 -2.12991 -0.452533
rclavicle -5.06435e-015 -2.555e-014
rhumerus 19.5364 8.45457 -3.71073
rradius 84.5666
rwrist -34.727
rhand 57.1733 -33.5928
rfingers 7.12502
rthumb 73.7546 -10.7133
lclavicle -5.06435e-015 -2.555e-014
lhumerus 19.1011 2.30735 14.8691
lradius 80.5251
lwrist 15.7699
lhand 47.2454 43.7661
lfingers 7.12502
lthumb 68.0536 -315.136
rfemur 7.91497 19.2836 30.2796
rtibia 0.718775
rfoot -28.9476 -26.053
rtoes -0.0251017
lfemur 2.84564 -22.0665 -16.7721
ltibia 9.13908
lfoot -34.9008 -5.98723
ltoes -22.4884
116
root 4.87623 16.0557 -0.035818 136.122 -83.3817 -134.273
lowerback 6.2738 1.46785 1.48137
upperback -9.86022 2.12807 1.97043
thorax -14.3883 0.860243 0.99203
lowerneck -12.3905 -1.60774 -2.57876
upperneck 34.5867 -2.60258 -1.05125
head 13.8242 -2.10685 -0.484452
rclavicle 4.94224e-015 -1.08955e-014
rhumerus 19.9332 7.76409 -4.18055
rradius 84.2284
rwrist -33.6811
rhand 55.9882 -33.2013
rfingers 7.12502
rthumb 73.2733 -13.9821
lclavicle 4.94224e-015 -1.08955e-014
lhumerus 19.2725 2.58904 14.9143
lradius 80.5181
lwrist 17.4918
lhand 46.7947 43.2841
lfingers 7.12502
lthumb 67.7268 -314.854
rfemur 7.86418 19.3802 30.3174
rtibia 0.707997
rfoot -28.8161 -26.2643
rtoes -0.626919
lfemur 2.79183 -22.1489 -16.7249
ltibia 9.19645
lfoot -35.0419 -6.12844
ltoes -22.8782
117
root 4.88129 16.0551 -0.0329261 135.938 -83.4075 -134.053
lowerback 6.18604 1.44015 1.4874
upperback -9.85526 2.09114 2.00762
thorax -14.3273 0.844707 1.03824
lowerneck -12.2265 -1.58443 -2.57171
upperneck 34.5757 -2.54726 -1.15615
head 13.7807 -2.09959 -0.516784
rclavicle 9.19379e-016 -2.41399e-014
rhumerus 20.6243 6.52099 -5.1646
rradius 83.6134
rwrist -32.5284
rhand 54.1103 -32.546
rfingers 7.12502
rthumb 72.3775 -18.6713
lclavicle 9.19379e-016 -2.41399e-014
lhumerus 19.4694 3.44309 15.5943
lradius 80.4778
lwrist 17.952
lhand 44.627 42.6018
lfingers 7.12502
lthumb 66.1013 -312.168
rfemur 7.77428 19.2219 30.236
rtibia 0.714797
rfoot -28.5644 -26.2446
rtoes -1.3385
lfemur 2.70725 -22.1427 -16.7182
ltibia 9.22242
lfoot -35.0246 -6.19444
ltoes -22.9514
118
root 4.88611 16.056 -0.0311169 135.99 -83.4515 -134.106
lowerback 6.12069 1.41315 1.35619
upperback -9.81309 2.04819 2.12474
thorax -14.2451 0.847542 1.24981
lowerneck -12.1014 -1.56336 -2.66044
upperneck 34.5245 -2.44563 -1.30836
head 13.7291 -2.08842 -0.543662
rclavicle -1.35919e-014 2.06736e-014
rhumerus 21.2417 4.74174 -6.37411
rradius 83.2673
rwrist -31.2224
rhand 50.6395 -31.5336
rfingers 7.12502
rthumb 70.3646 -26.0689
lclavicle -1.35919e-014 2.06736e-014
lhumerus 19.5817 4.8681 16.8702
lradius 80.5417
lwrist 17.2721
lhand 39.9884 41.0641
lfingers 7.12502
lthumb 62.3856 -307.931
rfemur 7.74847 19.0848 30.1417
rtibia 0.714943
rfoot -28.6199 -25.9902
rtoes -1.10672
lfemur 2.7017 -22.2425 -16.7914
ltibia 9.30385
lfoot -35.059 -6.18146
ltoes -23.2081
